<?xml version="1.0" standalone="no"?>
<!DOCTYPE svg PUBLIC "-//W3C//DTD SVG 20010904//EN"
 "http://www.w3.org/TR/2001/REC-SVG-20010904/DTD/svg10.dtd">
<svg version="1.0" xmlns="http://www.w3.org/2000/svg"
 width="248.000000pt" height="248.000000pt" viewBox="0 0 248.000000 248.000000"
 preserveAspectRatio="xMidYMid meet">
<metadata>
Created by potrace 1.14, written by Peter Selinger 2001-2017
</metadata>
<g transform="translate(0.000000,248.000000) scale(0.100000,-0.100000)"
fill="#000000" stroke="none">
<path d="M1085 1820 c-19 -21 -20 -38 -23 -367 -3 -305 -5 -344 -18 -339 -9 3
-18 6 -20 6 -2 0 -4 88 -4 196 l0 196 -332 -7 c-183 -5 -355 -11 -383 -14 -76
-9 -76 -8 -73 -338 3 -245 5 -284 19 -299 14 -13 53 -17 222 -23 238 -9 217
-2 344 -125 118 -114 174 -137 241 -96 37 23 41 54 17 134 -8 27 -15 52 -15
55 0 4 16 15 36 26 45 24 54 47 54 134 l0 68 83 6 c45 4 143 7 218 7 l136 0
86 -84 c47 -47 100 -92 117 -101 50 -26 121 -45 167 -45 61 0 69 20 44 117
-20 75 -16 113 10 113 5 0 21 11 34 25 l25 24 0 330 c0 181 -3 336 -6 345 -9
24 34 20 -849 72 -105 6 -111 6 -130 -16z m616 -173 c44 -29 73 -87 64 -127
-4 -17 -28 -50 -55 -76 -27 -25 -51 -57 -55 -71 -5 -22 -9 -24 -63 -21 l-57 3
3 35 c3 26 18 49 58 92 30 31 54 59 54 61 0 18 -15 37 -28 37 -20 0 -52 -29
-52 -47 0 -14 -32 -17 -92 -7 -42 7 -46 19 -23 68 35 73 172 103 246 53z
m-802 -271 c10 -12 9 -14 -7 -10 -14 4 -55 -33 -164 -145 -85 -88 -154 -151
-165 -151 -10 0 -29 7 -41 16 -12 8 -22 11 -22 5 0 -5 4 -11 8 -13 4 -1 19
-21 32 -43 24 -38 24 -39 2 -24 -12 9 -49 42 -83 74 -57 54 -60 60 -48 82 17
33 33 29 101 -22 33 -25 64 -45 68 -45 4 0 25 19 46 43 41 45 251 247 258 247
2 0 9 -6 15 -14z m761 -111 l0 -55 -65 0 -65 0 0 55 0 55 65 0 65 0 0 -55z
m355 -145 c8 0 15 -6 15 -12 0 -8 7 -5 15 6 8 11 15 14 15 8 0 -17 -37 -52
-54 -52 -8 0 -22 -7 -30 -16 -15 -14 -16 -14 -16 0 0 9 -6 16 -14 16 -8 0 -16
5 -18 12 -2 6 -10 8 -16 4 -18 -11 -13 -84 11 -161 18 -55 27 -71 44 -73 16
-2 23 3 26 20 4 16 5 14 4 -7 -2 -26 -6 -30 -34 -33 -23 -2 -39 4 -60 25 -16
15 -22 22 -13 16 21 -16 40 -17 40 -1 0 13 -59 120 -70 128 -4 3 -10 15 -14
28 -4 12 -12 22 -17 22 -5 0 -9 8 -9 17 0 9 -8 25 -17 36 -10 11 -13 18 -8 14
6 -3 44 -2 85 4 96 11 109 26 112 118 2 54 3 50 5 -26 3 -73 7 -93 18 -93z
m-281 47 c3 4 6 -1 6 -10 0 -9 5 -16 12 -14 15 3 18 -25 3 -35 -5 -4 -20 -8
-32 -8 -14 0 -23 -6 -23 -15 0 -12 -4 -13 -19 -6 -33 18 -103 30 -125 21 -16
-7 -9 -9 29 -10 58 0 59 -1 110 -60 29 -33 31 -38 10 -19 -54 48 -61 49 -314
49 -159 0 -249 4 -268 12 -22 9 -24 12 -10 15 9 3 17 13 17 24 0 16 3 17 19 7
14 -9 54 -9 167 0 82 6 193 8 246 5 104 -6 97 -9 113 42 3 11 10 13 29 6 13
-6 27 -7 30 -4z m-1254 -291 c19 -1 -18 -3 -82 -4 -65 -1 -118 1 -118 6 0 6
118 6 200 -2z"/>
</g>
</svg>
